<svg xmlns="http://www.w3.org/2000/svg" width="760" height="560" viewBox="0 0 760 560" role="img"><title>Original explanatory schematic, not measured scientific data</title><defs><linearGradient id="metal" x2="1" y2="1"><stop stop-color="#f1f5f9"/><stop offset="1" stop-color="#a1b5ca"/></linearGradient><linearGradient id="glass" x2="1" y2="1"><stop stop-color="#d7edfa" stop-opacity=".8"/><stop offset="1" stop-color="#819cb9" stop-opacity=".35"/></linearGradient></defs><rect width="760" height="560" fill="#eaf0f7"/><ellipse cx="367" cy="458" rx="197" ry="25" fill="#cbd6e3"/><path d="M249 394v-86c0-69 49-119 122-119s123 50 123 119v86z" fill="url(#glass)" stroke="#869fb8" stroke-width="3"/><ellipse cx="371" cy="391" rx="123" ry="47" fill="url(#metal)" stroke="#7c96b0" stroke-width="3"/><path d="M247 391v34c0 53 248 53 248 0v-34c0 53-248 53-248 0z" fill="#9eb1c5" stroke="#7c96b0" stroke-width="2"/><rect x="288" y="325" width="164" height="64" rx="12" fill="#456782" stroke="#b8cfe2" stroke-width="2"/><rect x="322" y="283" width="102" height="53" rx="12" fill="#264764"/><rect x="335" y="294" width="76" height="20" rx="5" fill="#77abc8"/><rect x="272" y="306" width="41" height="35" rx="4" fill="#243d52"/><circle cx="291" cy="322" r="12" fill="#153d61" stroke="#c3d9ed" stroke-width="3"/><g stroke="#5a7ca3" fill="none"><path d="M406 302h120v-44h40"/><path d="M290 322H191v-46h-55"/><path d="M357 359H181v38h-46"/><path d="M437 236h105v-67h27"/><path d="M483 421h75v15h40"/></g><g font-family="Arial,sans-serif" font-size="18" fill="#243e5c"><text x="571" y="262">LiDAR</text><text x="70" y="272">Camera</text><text x="62" y="417">Processing</text><text x="570" y="163">Optical dome</text><text x="598" y="442">Enclosure</text></g><text x="380" y="509" text-anchor="middle" font-family="Arial,sans-serif" font-size="13" fill="#607994">Illustrative architecture · not an engineering specification</text></svg>